<?xml version="1.0" standalone="no"?>
<svg xmlns="http://www.w3.org/2000/svg" viewBox="0 0 213 75" width="213" height="75"><g fill="#d61216" color="#d61216" transform="translate(84.224 0) scale(0.44) "><svg width="100.0" height="100.0" x="0.0" y="0.0" viewBox="0 0 100 100"><path d="M51.0112305,37.5V23.0830078c0-0.5527344-0.4477539-1-1-1s-1,0.4472656-1,1V37.5c0,0.5527344,0.4477539,1,1,1  S51.0112305,38.0527344,51.0112305,37.5z"></path><path d="M50.0112305,9.9882812c-2.6704102,0-4.8432617,2.1728516-4.8432617,4.84375s2.1728516,4.84375,4.8432617,4.84375  s4.8432617-2.1728516,4.8432617-4.84375S52.6816406,9.9882812,50.0112305,9.9882812z M50.0112305,17.6757812  c-1.5678711,0-2.8432617-1.2753906-2.8432617-2.84375s1.2753906-2.84375,2.8432617-2.84375s2.8432617,1.2753906,2.8432617,2.84375  S51.5791016,17.6757812,50.0112305,17.6757812z"></path><path d="M30.2631836,30.2636719c-0.390625,0.390625-0.390625,1.0234375,0,1.4140625l10.1943359,10.1933594  c0.1953125,0.1953125,0.4511719,0.2929688,0.7070312,0.2929688s0.5117188-0.0976562,0.7070312-0.2929688  c0.390625-0.390625,0.390625-1.0234375,0-1.4140625L31.6772461,30.2636719  C31.2866211,29.8730469,30.6538086,29.8730469,30.2631836,30.2636719z"></path><path d="M21.7109375,21.7109375c-1.8881836,1.8886719-1.8881836,4.9609375,0,6.8496094  c0.9443359,0.9443359,2.1845703,1.4160156,3.4248047,1.4160156s2.4804688-0.4716797,3.4248047-1.4160156  c1.8886719-1.8886719,1.8886719-4.9609375,0-6.8496094S23.5996094,19.8222656,21.7109375,21.7109375z M27.1464844,27.1464844  c-1.0742188,1.0742188-2.9472656,1.0742188-4.0214844,0c-1.1083984-1.1083984-1.1083984-2.9130859,0-4.0214844  c0.5371094-0.5371094,1.2509766-0.8330078,2.0107422-0.8330078S26.609375,22.5878906,27.1464844,23.125  s0.8330078,1.2509766,0.8330078,2.0107422S27.6835938,26.609375,27.1464844,27.1464844z"></path><path d="M22.0834961,50.0117188c0,0.5527344,0.4477539,1,1,1H37.5c0.5522461,0,1-0.4472656,1-1s-0.4477539-1-1-1H23.0834961  C22.53125,49.0117188,22.0834961,49.4589844,22.0834961,50.0117188z"></path><path d="M9.9887695,50.0117188c0,2.6699219,2.1728516,4.8427734,4.8432617,4.8427734s4.8432617-2.1728516,4.8432617-4.8427734  c0-2.6708984-2.1728516-4.84375-4.8432617-4.84375S9.9887695,47.3408203,9.9887695,50.0117188z M14.8320312,47.1679688  c1.5678711,0,2.8432617,1.2753906,2.8432617,2.84375c0,1.5673828-1.2753906,2.8427734-2.8432617,2.8427734  s-2.8432617-1.2753906-2.8432617-2.8427734C11.9887695,48.4433594,13.2641602,47.1679688,14.8320312,47.1679688z"></path><path d="M30.9702148,70.0517578c0.2558594,0,0.5117188-0.0976562,0.7070312-0.2929688L41.871582,59.5654297  c0.390625-0.390625,0.390625-1.0234375,0-1.4140625s-1.0234375-0.390625-1.4140625,0L30.2631836,68.3447266  c-0.390625,0.390625-0.390625,1.0234375,0,1.4140625C30.4584961,69.9541016,30.7143555,70.0517578,30.9702148,70.0517578z"></path><path d="M25.1357422,79.7275391c1.2402344,0,2.4804688-0.4716797,3.4248047-1.4160156  c1.8886719-1.8886719,1.8886719-4.9609375,0-6.8496094s-4.9609375-1.8886719-6.8496094,0  c-1.8881836,1.8886719-1.8881836,4.9609375,0,6.8496094C22.6552734,79.2558594,23.8955078,79.7275391,25.1357422,79.7275391z   M23.125,72.8759766c1.0742188-1.0751953,2.9472656-1.0751953,4.0214844,0  c0.5371094,0.5371094,0.8330078,1.2509766,0.8330078,2.0107422s-0.2958984,1.4736328-0.8330078,2.0107422  c-1.0742188,1.0742188-2.9472656,1.0742188-4.0214844,0C22.0166016,75.7890625,22.0166016,73.984375,23.125,72.8759766z"></path><path d="M68.3452148,69.7587891c0.1953125,0.1953125,0.4511719,0.2929688,0.7070312,0.2929688  s0.5117188-0.0976562,0.7070312-0.2929688c0.390625-0.390625,0.390625-1.0234375,0-1.4140625L59.5649414,58.1513672  c-0.390625-0.390625-1.0234375-0.390625-1.4140625,0s-0.390625,1.0234375,0,1.4140625L68.3452148,69.7587891z"></path><path d="M74.8867188,79.7275391c1.2402344,0,2.4804688-0.4716797,3.4248047-1.4160156  c1.8886719-1.8886719,1.8886719-4.9609375,0-6.8496094s-4.9609375-1.8886719-6.8496094,0s-1.8886719,4.9609375,0,6.8496094  C72.40625,79.2558594,73.6464844,79.7275391,74.8867188,79.7275391z M72.8759766,72.8759766  c0.5371094-0.5371094,1.2509766-0.8330078,2.0107422-0.8330078s1.4736328,0.2958984,2.0107422,0.8330078  s0.8330078,1.2509766,0.8330078,2.0107422s-0.2958984,1.4736328-0.8330078,2.0107422  c-1.0742188,1.0742188-2.9472656,1.0742188-4.0214844,0c-0.5371094-0.5371094-0.8330078-1.2509766-0.8330078-2.0107422  S72.3388672,73.4130859,72.8759766,72.8759766z"></path><path d="M77.9389648,50.0117188c0-0.5527344-0.4477539-1-1-1H62.5224609c-0.5522461,0-1,0.4472656-1,1s0.4477539,1,1,1h14.4165039  C77.4912109,51.0117188,77.9389648,50.5644531,77.9389648,50.0117188z"></path><path d="M85.1904297,45.1679688c-2.6704102,0-4.8432617,2.1728516-4.8432617,4.84375  c0,2.6699219,2.1728516,4.8427734,4.8432617,4.8427734s4.8432617-2.1728516,4.8432617-4.8427734  C90.0336914,47.3408203,87.8608398,45.1679688,85.1904297,45.1679688z M85.1904297,52.8544922  c-1.5678711,0-2.8432617-1.2753906-2.8432617-2.8427734c0-1.5683594,1.2753906-2.84375,2.8432617-2.84375  s2.8432617,1.2753906,2.8432617,2.84375C88.0336914,51.5791016,86.7583008,52.8544922,85.1904297,52.8544922z"></path><path d="M68.3452148,30.2636719L58.1508789,40.4570312c-0.390625,0.390625-0.390625,1.0234375,0,1.4140625  c0.1953125,0.1953125,0.4511719,0.2929688,0.7070312,0.2929688s0.5117188-0.0976562,0.7070312-0.2929688l10.1943359-10.1933594  c0.390625-0.390625,0.390625-1.0234375,0-1.4140625S68.7358398,29.8730469,68.3452148,30.2636719z"></path><path d="M78.3115234,21.7109375c-1.8886719-1.8886719-4.9609375-1.8886719-6.8496094,0s-1.8886719,4.9609375,0,6.8496094  c0.9443359,0.9443359,2.1845703,1.4160156,3.4248047,1.4160156s2.4804688-0.4716797,3.4248047-1.4160156  C80.2001953,26.671875,80.2001953,23.5996094,78.3115234,21.7109375z M76.8974609,27.1464844  c-1.0742188,1.0742188-2.9472656,1.0742188-4.0214844,0c-0.5371094-0.5371094-0.8330078-1.2509766-0.8330078-2.0107422  s0.2958984-1.4736328,0.8330078-2.0107422s1.2509766-0.8330078,2.0107422-0.8330078s1.4736328,0.2958984,2.0107422,0.8330078  s0.8330078,1.2509766,0.8330078,2.0107422S77.4345703,26.609375,76.8974609,27.1464844z"></path><path d="M54.3134766,38.9746094c-0.5175781-0.203125-1.0947266,0.0537109-1.2949219,0.5683594l-0.5449219,1.3984375  c-0.2006836,0.5146484,0.0541992,1.0947266,0.5683594,1.2949219c0.1196289,0.046875,0.2421875,0.0683594,0.362793,0.0683594  c0.4003906,0,0.7783203-0.2412109,0.9321289-0.6367188l0.5449219-1.3984375  C55.0825195,39.7548828,54.8276367,39.1748047,54.3134766,38.9746094z"></path><path d="M55.7290039,32.5898438l-1.1616211,2.9804688c-0.2006836,0.5146484,0.0537109,1.0947266,0.5683594,1.2949219  c0.1196289,0.046875,0.2421875,0.0683594,0.3632812,0.0683594c0.3999023,0,0.777832-0.2412109,0.9316406-0.6367188  l1.1616211-2.9804688c0.2006836-0.5146484-0.0537109-1.0947266-0.5683594-1.2949219  C56.5097656,31.8212891,55.9291992,32.0751953,55.7290039,32.5898438z"></path><path d="M61.1503906,18.6826172l-1.1616211,2.9804688c-0.2006836,0.5146484,0.0537109,1.0947266,0.5683594,1.2949219  c0.1196289,0.046875,0.2421875,0.0683594,0.362793,0.0683594c0.4003906,0,0.7783203-0.2412109,0.9321289-0.6367188  l1.1616211-2.9804688c0.2006836-0.5146484-0.0537109-1.0947266-0.5683594-1.2949219  C61.9316406,17.9140625,61.3510742,18.1679688,61.1503906,18.6826172z"></path><path d="M58.4399414,25.6367188l-1.1616211,2.9794922c-0.2006836,0.5146484,0.0537109,1.0947266,0.5683594,1.2949219  c0.1191406,0.046875,0.2421875,0.0683594,0.362793,0.0683594c0.4003906,0,0.7783203-0.2412109,0.9321289-0.6367188  l1.1616211-2.9794922c0.2006836-0.5146484-0.0537109-1.0947266-0.5683594-1.2949219  C59.2211914,24.8671875,58.6396484,25.1220703,58.4399414,25.6367188z"></path><path d="M64.5395508,12.7431641c-0.515625-0.203125-1.09375,0.0537109-1.2949219,0.5683594l-0.5449219,1.3974609  c-0.2006836,0.5146484,0.0537109,1.0947266,0.5683594,1.2949219c0.1191406,0.046875,0.2421875,0.0683594,0.362793,0.0683594  c0.4003906,0,0.777832-0.2412109,0.9321289-0.6367188l0.5449219-1.3974609  C65.3085938,13.5234375,65.0541992,12.9433594,64.5395508,12.7431641z"></path><path d="M44.7358398,40.4833984l0.6030273,1.3730469c0.1645508,0.375,0.53125,0.5976562,0.9160156,0.5976562  c0.1342773,0,0.2709961-0.0273438,0.4018555-0.0839844c0.5053711-0.2226562,0.7353516-0.8125,0.5131836-1.3183594  l-0.6030273-1.3730469c-0.2211914-0.5048828-0.8105469-0.7314453-1.3178711-0.5136719  C44.7436523,39.3876953,44.5136719,39.9775391,44.7358398,40.4833984z"></path><path d="M40.5664062,26.0107422c-0.2216797-0.5058594-0.8100586-0.7324219-1.3173828-0.5136719  c-0.5058594,0.2226562-0.7358398,0.8125-0.5136719,1.3183594l1.2856445,2.9287109  c0.1645508,0.375,0.53125,0.5976562,0.9160156,0.5976562c0.1342773,0,0.2705078-0.0273438,0.4013672-0.0839844  c0.5058594-0.2226562,0.7358398-0.8125,0.5136719-1.3183594L40.5664062,26.0107422z"></path><path d="M37.5664062,19.1767578c-0.2216797-0.5058594-0.8110352-0.7324219-1.3173828-0.5136719  c-0.5058594,0.2226562-0.7358398,0.8125-0.5136719,1.3183594l1.2856445,2.9287109  c0.1645508,0.375,0.53125,0.5976562,0.9160156,0.5976562c0.1342773,0,0.2705078-0.0273438,0.4013672-0.0839844  c0.5058594-0.2226562,0.7358398-0.8125,0.5136719-1.3183594L37.5664062,19.1767578z"></path><path d="M43.5668945,32.8447266c-0.2216797-0.5058594-0.8115234-0.7314453-1.3173828-0.5136719  c-0.5058594,0.2226562-0.7358398,0.8125-0.5136719,1.3183594l1.2856445,2.9287109  c0.1645508,0.375,0.53125,0.5976562,0.9160156,0.5976562c0.1342773,0,0.2705078-0.0273438,0.4013672-0.0839844  c0.5058594-0.2226562,0.7358398-0.8125,0.5136719-1.3183594L43.5668945,32.8447266z"></path><path d="M35.2490234,13.8984375c-0.2216797-0.5048828-0.8115234-0.7314453-1.3173828-0.5136719  c-0.5058594,0.2226562-0.7358398,0.8125-0.5136719,1.3183594l0.6030273,1.3740234  c0.1645508,0.3740234,0.53125,0.5976562,0.9160156,0.5976562c0.1342773,0,0.2705078-0.0273438,0.4013672-0.0839844  c0.5058594-0.2226562,0.7358398-0.8125,0.5136719-1.3183594L35.2490234,13.8984375z"></path><path d="M39.543457,47.0039062l1.3974609,0.5449219c0.1191406,0.046875,0.2421875,0.0683594,0.362793,0.0683594  c0.4003906,0,0.777832-0.2412109,0.9321289-0.6367188c0.2006836-0.5146484-0.0537109-1.0947266-0.5683594-1.2949219  l-1.3974609-0.5449219c-0.515625-0.2021484-1.09375,0.0537109-1.2949219,0.5683594  C38.7744141,46.2236328,39.0288086,46.8037109,39.543457,47.0039062z"></path><path d="M18.1137695,37.5771484c-0.2006836,0.5146484,0.0537109,1.0947266,0.5683594,1.2949219l2.9804688,1.1621094  c0.1191406,0.046875,0.2421875,0.0683594,0.362793,0.0683594c0.4003906,0,0.7783203-0.2412109,0.9321289-0.6367188  c0.2006836-0.5146484-0.0537109-1.0947266-0.5683594-1.2949219l-2.9804688-1.1621094  C18.8911133,36.8056641,18.3139648,37.0625,18.1137695,37.5771484z"></path><path d="M35.5698242,45.4550781c0.1191406,0.046875,0.2421875,0.0683594,0.362793,0.0683594  c0.4003906,0,0.777832-0.2412109,0.9321289-0.6367188c0.2006836-0.5146484-0.0537109-1.0947266-0.5683594-1.2949219  l-2.9799805-1.1621094c-0.5141602-0.203125-1.0942383,0.0537109-1.2949219,0.5683594s0.0537109,1.0947266,0.5683594,1.2949219  L35.5698242,45.4550781z"></path><path d="M28.6166992,42.7441406c0.1191406,0.046875,0.2416992,0.0683594,0.362793,0.0683594  c0.3999023,0,0.777832-0.2412109,0.9316406-0.6367188c0.2006836-0.5146484-0.0541992-1.0947266-0.5688477-1.2949219  l-2.9804688-1.1611328c-0.5141602-0.2021484-1.0942383,0.0537109-1.2944336,0.5683594  c-0.2006836,0.5146484,0.0541992,1.0947266,0.5688477,1.2949219L28.6166992,42.7441406z"></path><path d="M14.7089844,37.3232422c0.1196289,0.046875,0.2421875,0.0683594,0.362793,0.0683594  c0.4003906,0,0.7783203-0.2412109,0.9321289-0.6367188c0.2006836-0.5146484-0.0537109-1.0947266-0.5683594-1.2949219  l-1.3979492-0.5449219c-0.5166016-0.2021484-1.0947266,0.0537109-1.2949219,0.5683594  c-0.2006836,0.5146484,0.0537109,1.0947266,0.5683594,1.2949219L14.7089844,37.3232422z"></path><path d="M42.3701172,53.3652344c-0.2216797-0.5058594-0.8115234-0.734375-1.3178711-0.5126953l-1.3735352,0.6035156  c-0.5053711,0.2216797-0.7353516,0.8115234-0.5131836,1.3173828c0.1645508,0.375,0.53125,0.5976562,0.9160156,0.5976562  c0.1342773,0,0.2709961-0.0273438,0.4018555-0.0849609l1.3735352-0.6035156  C42.3623047,54.4609375,42.5922852,53.8710938,42.3701172,53.3652344z"></path><path d="M28.9404297,58.1689453l-2.9291992,1.2861328c-0.5058594,0.2226562-0.7358398,0.8125-0.5136719,1.3183594  c0.1645508,0.375,0.53125,0.5976562,0.9160156,0.5976562c0.1342773,0,0.2709961-0.0273438,0.4013672-0.0839844l2.9291992-1.2861328  c0.5058594-0.2226562,0.7358398-0.8125,0.5136719-1.3183594C30.0366211,58.1767578,29.4472656,57.9521484,28.9404297,58.1689453z"></path><path d="M35.7739258,55.1689453l-2.9287109,1.2861328c-0.5058594,0.2226562-0.7358398,0.8125-0.5136719,1.3183594  c0.1645508,0.375,0.53125,0.5976562,0.9160156,0.5976562c0.1342773,0,0.2709961-0.0273438,0.4013672-0.0839844l2.9287109-1.2861328  c0.5058594-0.2226562,0.7358398-0.8125,0.5136719-1.3183594C36.8696289,55.1767578,36.2797852,54.9511719,35.7739258,55.1689453z"></path><path d="M18.6640625,63.7724609c0.1645508,0.375,0.53125,0.5986328,0.9160156,0.5986328  c0.1342773,0,0.2705078-0.0273438,0.4013672-0.0839844l2.9287109-1.2851562  c0.5058594-0.2226562,0.7358398-0.8125,0.5136719-1.3173828c-0.2216797-0.5058594-0.8110352-0.7314453-1.3173828-0.5146484  l-2.9287109,1.2851562C18.671875,62.6777344,18.4418945,63.2675781,18.6640625,63.7724609z"></path><path d="M15.2724609,64.1708984l-1.3735352,0.6035156c-0.5053711,0.2216797-0.7353516,0.8115234-0.5131836,1.3173828  c0.1645508,0.375,0.53125,0.5976562,0.9160156,0.5976562c0.1342773,0,0.2709961-0.0273438,0.4018555-0.0849609l1.3735352-0.6035156  c0.5053711-0.2216797,0.7353516-0.8115234,0.5131836-1.3173828C16.3686523,64.1787109,15.7783203,63.9482422,15.2724609,64.1708984z  "></path><path d="M58.3549805,54.3369141l1.3974609,0.5449219c0.1191406,0.046875,0.2421875,0.0683594,0.362793,0.0683594  c0.4003906,0,0.777832-0.2412109,0.9321289-0.6367188c0.2006836-0.5146484-0.0537109-1.0947266-0.5683594-1.2949219  l-1.3974609-0.5449219c-0.5141602-0.203125-1.0942383,0.0537109-1.2949219,0.5683594S57.840332,54.1367188,58.3549805,54.3369141z"></path><path d="M66.7060547,57.5927734c0.1191406,0.046875,0.2421875,0.0683594,0.362793,0.0683594  c0.4003906,0,0.777832-0.2412109,0.9321289-0.6367188c0.2006836-0.5146484-0.0537109-1.0947266-0.5683594-1.2949219  l-2.9799805-1.1621094c-0.5151367-0.2021484-1.09375,0.0537109-1.2949219,0.5683594  c-0.2006836,0.5146484,0.0537109,1.0947266,0.5683594,1.2949219L66.7060547,57.5927734z"></path><path d="M70.6801758,59.1416016l2.9804688,1.1611328c0.1191406,0.046875,0.2416992,0.0683594,0.362793,0.0683594  c0.3999023,0,0.777832-0.2412109,0.9316406-0.6367188c0.2006836-0.5146484-0.0541992-1.0947266-0.5688477-1.2949219  l-2.9804688-1.1611328c-0.5141602-0.2021484-1.0942383,0.0537109-1.2944336,0.5683594  C69.9106445,58.3613281,70.1655273,58.9414062,70.6801758,59.1416016z"></path><path d="M81.340332,61.1503906l-2.9804688-1.1621094c-0.5136719-0.2021484-1.0952148,0.0537109-1.2949219,0.5683594  c-0.2006836,0.5146484,0.0537109,1.0947266,0.5683594,1.2949219l2.9804688,1.1621094  c0.1196289,0.046875,0.2421875,0.0683594,0.362793,0.0683594c0.4003906,0,0.7783203-0.2412109,0.9321289-0.6367188  C82.109375,61.9306641,81.8549805,61.3505859,81.340332,61.1503906z"></path><path d="M85.9848633,65.1074219c0.1196289,0.046875,0.2421875,0.0683594,0.362793,0.0683594  c0.4003906,0,0.7783203-0.2412109,0.9321289-0.6367188c0.2006836-0.5146484-0.0537109-1.0947266-0.5683594-1.2949219  l-1.3979492-0.5449219c-0.5170898-0.2021484-1.0947266,0.0537109-1.2949219,0.5683594  c-0.2006836,0.5146484,0.0537109,1.0947266,0.5683594,1.2949219L85.9848633,65.1074219z"></path><path d="M58.5683594,47.2548828c0.1342773,0,0.2709961-0.0273438,0.4018555-0.0849609l1.3735352-0.6035156  c0.5053711-0.2216797,0.7353516-0.8115234,0.5131836-1.3173828s-0.8105469-0.7333984-1.3178711-0.5126953l-1.3735352,0.6035156  c-0.5053711,0.2216797-0.7353516,0.8115234-0.5131836,1.3173828C57.8168945,47.0322266,58.1835938,47.2548828,58.5683594,47.2548828  z"></path><path d="M81.3583984,36.2490234c-0.2211914-0.5058594-0.8129883-0.7314453-1.3173828-0.5136719l-2.9287109,1.2861328  c-0.5058594,0.2226562-0.7358398,0.8125-0.5136719,1.3183594c0.1645508,0.375,0.53125,0.5976562,0.9160156,0.5976562  c0.1342773,0,0.2709961-0.0273438,0.4013672-0.0839844l2.9287109-1.2861328  C81.3505859,37.3447266,81.5805664,36.7548828,81.3583984,36.2490234z"></path><path d="M70.6811523,41.9375c0.1342773,0,0.2709961-0.0273438,0.4013672-0.0839844l2.9287109-1.2861328  c0.5058594-0.2226562,0.7358398-0.8125,0.5136719-1.3183594c-0.2216797-0.5058594-0.8120117-0.7324219-1.3173828-0.5136719  l-2.9287109,1.2861328c-0.5058594,0.2226562-0.7358398,0.8125-0.5136719,1.3183594  C69.9296875,41.7148438,70.2963867,41.9375,70.6811523,41.9375z"></path><path d="M63.847168,44.9375c0.1342773,0,0.2709961-0.0273438,0.4013672-0.0839844l2.9287109-1.2861328  c0.5058594-0.2226562,0.7358398-0.8125,0.5136719-1.3183594c-0.2216797-0.5048828-0.8120117-0.7314453-1.3173828-0.5136719  l-2.9287109,1.2861328c-0.5058594,0.2226562-0.7358398,0.8125-0.5136719,1.3183594  C63.0957031,44.7148438,63.4624023,44.9375,63.847168,44.9375z"></path><path d="M85.3188477,33.4179688l-1.3735352,0.6035156c-0.5053711,0.2216797-0.7353516,0.8115234-0.5131836,1.3173828  c0.1645508,0.375,0.53125,0.5976562,0.9160156,0.5976562c0.1342773,0,0.2709961-0.0273438,0.4018555-0.0849609l1.3735352-0.6035156  c0.5053711-0.2216797,0.7353516-0.8115234,0.5131836-1.3173828C86.4150391,33.4248047,85.824707,33.1962891,85.3188477,33.4179688z"></path><path d="M46.5175781,51.3574219l-1.0385742,37.6152344C45.4638672,89.5244141,45.8989258,89.984375,46.4506836,90  c0.5712891-0.0224609,1.012207-0.4208984,1.0273438-0.9726562l1.0390625-37.6425781  c0-0.4521484,0.4931641-0.8349609,1.0766602-0.8349609h1.0395508c0.5834961,0,1.0766602,0.3828125,1.0771484,0.8623047  l1.0385742,37.6152344C52.7636719,89.5703125,53.2084961,90,53.7480469,90c0.0092773,0,0.0185547,0,0.0283203,0  c0.5517578-0.015625,0.9868164-0.4755859,0.9716797-1.0273438l-1.0380859-37.5878906  c0-1.5634766-1.3803711-2.8349609-3.0766602-2.8349609H49.59375C47.8974609,48.5498047,46.5170898,49.8212891,46.5175781,51.3574219  z"></path></svg></g><path fill="#152452" fill-rule="nonzero" d="M8.40 17.52Q6 17.52 4.09 16.48Q2.18 15.43 1.09 13.48Q0 11.52 0 8.90L0 8.90Q0 6.29 1.09 4.33Q2.18 2.38 4.09 1.33Q6 0.29 8.40 0.29L8.40 0.29Q10.03 0.29 11.32 0.67Q12.60 1.06 13.87 1.78L13.87 1.78Q14.40 2.06 14.40 2.69L14.40 2.69Q14.40 3.05 14.14 3.32Q13.87 3.60 13.44 3.60L13.44 3.60Q13.20 3.60 13.01 3.50L13.01 3.50Q11.95 2.95 10.94 2.66Q9.94 2.38 8.62 2.38L8.62 2.38Q6.55 2.38 5.10 3.23Q3.65 4.08 2.92 5.56Q2.18 7.03 2.18 8.90L2.18 8.90Q2.18 10.78 2.92 12.25Q3.65 13.73 5.10 14.58Q6.55 15.43 8.62 15.43L8.62 15.43Q9.94 15.43 10.94 15.14Q11.95 14.86 13.01 14.30L13.01 14.30Q13.20 14.21 13.44 14.21L13.44 14.21Q13.87 14.21 14.14 14.47Q14.40 14.74 14.40 15.12L14.40 15.12Q14.40 15.74 13.87 16.03L13.87 16.03Q12.60 16.75 11.32 17.14Q10.03 17.52 8.40 17.52L8.40 17.52ZM18.17 17.40Q17.71 17.40 17.40 17.09Q17.09 16.78 17.09 16.32L17.09 16.32L17.09 6.02Q17.09 5.57 17.40 5.24Q17.71 4.92 18.17 4.92L18.17 4.92Q18.62 4.92 18.95 5.24Q19.27 5.57 19.27 6.02L19.27 6.02L19.27 7.06Q20.95 4.80 23.04 4.80L23.04 4.80L23.16 4.80Q23.62 4.80 23.92 5.11Q24.22 5.42 24.22 5.88L24.22 5.88Q24.22 6.34 23.90 6.62Q23.59 6.91 23.11 6.91L23.11 6.91L22.99 6.91Q21.84 6.91 20.88 7.48Q19.92 8.04 19.27 9.02L19.27 9.02L19.27 16.32Q19.27 16.78 18.95 17.09Q18.62 17.40 18.17 17.40L18.17 17.40ZM29.02 22.92Q28.58 22.92 28.28 22.61Q27.98 22.30 27.98 21.86L27.98 21.86Q27.98 21.67 28.06 21.48L28.06 21.48L29.62 17.47L25.10 6.48Q25.01 6.24 25.01 6.02L25.01 6.02Q25.01 5.57 25.32 5.24Q25.63 4.92 26.09 4.92L26.09 4.92Q26.42 4.92 26.70 5.11Q26.98 5.30 27.10 5.59L27.10 5.59L30.79 14.76L34.56 5.64Q34.87 4.92 35.57 4.92L35.57 4.92Q36.02 4.92 36.34 5.24Q36.65 5.57 36.65 6.02L36.65 6.02Q36.65 6.24 36.58 6.43L36.58 6.43L30.02 22.18Q29.69 22.92 29.02 22.92L29.02 22.92ZM43.13 17.52Q40.73 17.52 38.76 16.44L38.76 16.44Q38.35 16.15 38.35 15.65L38.35 15.65Q38.35 15.26 38.62 14.98Q38.88 14.69 39.29 14.69L39.29 14.69Q39.50 14.69 39.72 14.78L39.72 14.78Q40.49 15.12 41.26 15.31Q42.02 15.50 42.98 15.50L42.98 15.50Q45.65 15.50 45.65 13.80L45.65 13.80Q45.65 13.25 45.04 12.96Q44.42 12.67 43.03 12.31L43.03 12.31Q41.62 11.98 40.69 11.62Q39.77 11.26 39.11 10.52Q38.45 9.79 38.45 8.59L38.45 8.59Q38.45 6.91 39.66 5.86Q40.87 4.80 43.13 4.80L43.13 4.80Q44.98 4.80 46.61 5.40L46.61 5.40Q46.94 5.50 47.12 5.76Q47.30 6.02 47.30 6.31L47.30 6.31Q47.30 6.70 47.03 6.98Q46.75 7.27 46.34 7.27L46.34 7.27Q46.22 7.27 46.03 7.22L46.03 7.22Q44.64 6.79 43.30 6.79L43.30 6.79Q42 6.79 41.27 7.26Q40.54 7.73 40.54 8.47L40.54 8.47Q40.54 9.19 41.21 9.53Q41.88 9.86 43.30 10.18L43.30 10.18Q44.71 10.54 45.60 10.88Q46.49 11.23 47.12 11.98Q47.76 12.72 47.76 13.97L47.76 13.97Q47.76 15.50 46.55 16.51Q45.34 17.52 43.13 17.52L43.13 17.52ZM54.82 17.52Q51.31 17.52 51.31 14.35L51.31 14.35L51.31 6.91L49.61 6.91Q49.42 6.91 49.28 6.78Q49.15 6.65 49.15 6.46L49.15 6.46Q49.15 6.22 49.37 6.05L49.37 6.05L52.63 2.86Q52.85 2.64 53.04 2.64L53.04 2.64Q53.23 2.64 53.36 2.78Q53.50 2.93 53.50 3.12L53.50 3.12L53.50 5.04L56.21 5.04Q56.62 5.04 56.88 5.30Q57.14 5.57 57.14 5.98L57.14 5.98Q57.14 6.36 56.88 6.64Q56.62 6.91 56.21 6.91L56.21 6.91L53.50 6.91L53.50 14.16Q53.50 15.10 53.94 15.35Q54.38 15.60 55.06 15.60L55.06 15.60Q55.54 15.60 56.02 15.46L56.02 15.46Q56.11 15.43 56.22 15.41Q56.33 15.38 56.50 15.38L56.50 15.38Q56.83 15.38 57.10 15.64Q57.36 15.89 57.36 16.25L57.36 16.25Q57.36 16.80 56.81 17.09L56.81 17.09Q55.87 17.52 54.82 17.52L54.82 17.52ZM62.88 17.52Q61.82 17.52 60.92 17.09Q60.02 16.66 59.50 15.83Q58.97 15 58.97 13.92L58.97 13.92Q58.97 12.14 60.37 11.09Q61.78 10.03 64.49 10.03L64.49 10.03L67.39 10.03L67.39 9.84Q67.39 8.26 66.61 7.56Q65.83 6.86 64.18 6.86L64.18 6.86Q63.26 6.86 62.56 7.01Q61.85 7.15 60.98 7.44L60.98 7.44Q60.79 7.49 60.67 7.49L60.67 7.49Q60.31 7.49 60.05 7.22Q59.78 6.96 59.78 6.58L59.78 6.58Q59.78 5.93 60.41 5.66L60.41 5.66Q62.45 4.80 64.56 4.80L64.56 4.80Q66.22 4.80 67.36 5.47Q68.50 6.14 69.04 7.21Q69.58 8.28 69.58 9.53L69.58 9.53L69.58 16.32Q69.58 16.78 69.25 17.09Q68.93 17.40 68.47 17.40L68.47 17.40Q68.02 17.40 67.70 17.09Q67.39 16.78 67.39 16.32L67.39 16.32L67.39 15.70Q65.62 17.52 62.88 17.52L62.88 17.52ZM63.70 15.60Q64.75 15.60 65.74 15.08Q66.72 14.57 67.39 13.80L67.39 13.80L67.39 11.78L64.78 11.78Q61.15 11.78 61.15 13.68L61.15 13.68Q61.15 14.54 61.74 15.07Q62.33 15.60 63.70 15.60L63.70 15.60ZM74.33 17.40Q73.87 17.40 73.56 17.09Q73.25 16.78 73.25 16.32L73.25 16.32L73.25 6.02Q73.25 5.57 73.56 5.24Q73.87 4.92 74.33 4.92L74.33 4.92Q74.78 4.92 75.11 5.24Q75.43 5.57 75.43 6.02L75.43 6.02L75.43 7.01Q76.10 6.05 77.05 5.42Q78 4.80 79.51 4.80L79.51 4.80Q80.86 4.80 81.82 5.52Q82.78 6.24 83.18 7.27L83.18 7.27Q84.67 4.80 87.60 4.80L87.60 4.80Q88.94 4.80 89.84 5.47Q90.74 6.14 91.18 7.20Q91.61 8.26 91.61 9.41L91.61 9.41L91.61 16.32Q91.61 16.78 91.28 17.09Q90.96 17.40 90.50 17.40L90.50 17.40Q90.05 17.40 89.74 17.09Q89.42 16.78 89.42 16.32L89.42 16.32L89.42 9.84Q89.42 8.28 88.87 7.55Q88.32 6.82 86.98 6.82L86.98 6.82Q85.75 6.82 84.95 7.45Q84.14 8.09 83.52 9.12L83.52 9.12L83.52 16.32Q83.52 16.78 83.20 17.09Q82.87 17.40 82.42 17.40L82.42 17.40Q81.96 17.40 81.65 17.09Q81.34 16.78 81.34 16.32L81.34 16.32L81.34 9.84Q81.34 8.28 80.78 7.55Q80.23 6.82 78.89 6.82L78.89 6.82Q77.66 6.82 76.86 7.45Q76.06 8.09 75.43 9.12L75.43 9.12L75.43 16.32Q75.43 16.78 75.11 17.09Q74.78 17.40 74.33 17.40L74.33 17.40ZM98.40 17.52Q97.34 17.52 96.44 17.09Q95.54 16.66 95.02 15.83Q94.49 15 94.49 13.92L94.49 13.92Q94.49 12.14 95.89 11.09Q97.30 10.03 100.01 10.03L100.01 10.03L102.91 10.03L102.91 9.84Q102.91 8.26 102.13 7.56Q101.35 6.86 99.70 6.86L99.70 6.86Q98.78 6.86 98.08 7.01Q97.37 7.15 96.50 7.44L96.50 7.44Q96.31 7.49 96.19 7.49L96.19 7.49Q95.83 7.49 95.57 7.22Q95.30 6.96 95.30 6.58L95.30 6.58Q95.30 5.93 95.93 5.66L95.93 5.66Q97.97 4.80 100.08 4.80L100.08 4.80Q101.74 4.80 102.88 5.47Q104.02 6.14 104.56 7.21Q105.10 8.28 105.10 9.53L105.10 9.53L105.10 16.32Q105.10 16.78 104.77 17.09Q104.45 17.40 103.99 17.40L103.99 17.40Q103.54 17.40 103.22 17.09Q102.91 16.78 102.91 16.32L102.91 16.32L102.91 15.70Q101.14 17.52 98.40 17.52L98.40 17.52ZM99.22 15.60Q100.27 15.60 101.26 15.08Q102.24 14.57 102.91 13.80L102.91 13.80L102.91 11.78L100.30 11.78Q96.67 11.78 96.67 13.68L96.67 13.68Q96.67 14.54 97.26 15.07Q97.85 15.60 99.22 15.60L99.22 15.60ZM114.24 17.52Q111.31 17.52 109.67 15.85Q108.02 14.18 108.02 11.16L108.02 11.16Q108.02 9.46 108.65 8.02Q109.27 6.58 110.57 5.69Q111.86 4.80 113.76 4.80L113.76 4.80Q115.54 4.80 116.83 5.63Q118.13 6.46 118.80 7.84Q119.47 9.22 119.47 10.85L119.47 10.85Q119.47 11.30 119.17 11.62Q118.87 11.93 118.37 11.93L118.37 11.93L110.23 11.93Q110.42 13.61 111.48 14.54Q112.54 15.48 114.43 15.48L114.43 15.48Q115.44 15.48 116.20 15.29Q116.95 15.10 117.67 14.74L117.67 14.74Q117.86 14.64 118.10 14.64L118.10 14.64Q118.49 14.64 118.78 14.90Q119.06 15.17 119.06 15.58L119.06 15.58Q119.06 16.10 118.44 16.46L118.44 16.46Q117.50 16.99 116.59 17.26Q115.68 17.52 114.24 17.52L114.24 17.52ZM110.23 10.15L117.31 10.15Q117.24 8.98 116.70 8.18Q116.16 7.39 115.37 7.02Q114.58 6.65 113.76 6.65L113.76 6.65Q112.94 6.65 112.15 7.02Q111.36 7.39 110.83 8.18Q110.30 8.98 110.23 10.15L110.23 10.15ZM130.10 17.40Q129.65 17.40 129.34 17.09Q129.02 16.78 129.02 16.32L129.02 16.32L129.02 1.51Q129.02 1.06 129.34 0.73Q129.65 0.41 130.10 0.41L130.10 0.41Q130.56 0.41 130.88 0.73Q131.21 1.06 131.21 1.51L131.21 1.51L131.21 7.90L140.30 7.90L140.30 1.51Q140.30 1.06 140.62 0.73Q140.93 0.41 141.38 0.41L141.38 0.41Q141.84 0.41 142.16 0.73Q142.49 1.06 142.49 1.51L142.49 1.51L142.49 16.32Q142.49 16.78 142.16 17.09Q141.84 17.40 141.38 17.40L141.38 17.40Q140.93 17.40 140.62 17.09Q140.30 16.78 140.30 16.32L140.30 16.32L140.30 9.94L131.21 9.94L131.21 16.32Q131.21 16.78 130.88 17.09Q130.56 17.40 130.10 17.40L130.10 17.40ZM147.50 2.54Q147 2.54 146.64 2.18Q146.28 1.82 146.28 1.32L146.28 1.32L146.28 1.22Q146.28 0.72 146.64 0.36Q147 0 147.50 0L147.50 0L147.65 0Q148.15 0 148.51 0.36Q148.87 0.72 148.87 1.22L148.87 1.22L148.87 1.32Q148.87 1.82 148.51 2.18Q148.15 2.54 147.65 2.54L147.65 2.54L147.50 2.54ZM147.55 17.40Q147.10 17.40 146.78 17.09Q146.47 16.78 146.47 16.32L146.47 16.32L146.47 6.02Q146.47 5.57 146.78 5.24Q147.10 4.92 147.55 4.92L147.55 4.92Q148.03 4.92 148.34 5.23Q148.66 5.54 148.66 6.02L148.66 6.02L148.66 16.32Q148.66 16.78 148.33 17.09Q148.01 17.40 147.55 17.40L147.55 17.40ZM156.41 17.52Q154.01 17.52 152.04 16.44L152.04 16.44Q151.63 16.15 151.63 15.65L151.63 15.65Q151.63 15.26 151.90 14.98Q152.16 14.69 152.57 14.69L152.57 14.69Q152.78 14.69 153 14.78L153 14.78Q153.77 15.12 154.54 15.31Q155.30 15.50 156.26 15.50L156.26 15.50Q158.93 15.50 158.93 13.80L158.93 13.80Q158.93 13.25 158.32 12.96Q157.70 12.67 156.31 12.31L156.31 12.31Q154.90 11.98 153.97 11.62Q153.05 11.26 152.39 10.52Q151.73 9.79 151.73 8.59L151.73 8.59Q151.73 6.91 152.94 5.86Q154.15 4.80 156.41 4.80L156.41 4.80Q158.26 4.80 159.89 5.40L159.89 5.40Q160.22 5.50 160.40 5.76Q160.58 6.02 160.58 6.31L160.58 6.31Q160.58 6.70 160.31 6.98Q160.03 7.27 159.62 7.27L159.62 7.27Q159.50 7.27 159.31 7.22L159.31 7.22Q157.92 6.79 156.58 6.79L156.58 6.79Q155.28 6.79 154.55 7.26Q153.82 7.73 153.82 8.47L153.82 8.47Q153.82 9.19 154.49 9.53Q155.16 9.86 156.58 10.18L156.58 10.18Q157.99 10.54 158.88 10.88Q159.77 11.23 160.40 11.98Q161.04 12.72 161.04 13.97L161.04 13.97Q161.04 15.50 159.83 16.51Q158.62 17.52 156.41 17.52L156.41 17.52ZM168.10 17.52Q164.59 17.52 164.59 14.35L164.59 14.35L164.59 6.91L162.89 6.91Q162.70 6.91 162.56 6.78Q162.43 6.65 162.43 6.46L162.43 6.46Q162.43 6.22 162.65 6.05L162.65 6.05L165.91 2.86Q166.13 2.64 166.32 2.64L166.32 2.64Q166.51 2.64 166.64 2.78Q166.78 2.93 166.78 3.12L166.78 3.12L166.78 5.04L169.49 5.04Q169.90 5.04 170.16 5.30Q170.42 5.57 170.42 5.98L170.42 5.98Q170.42 6.36 170.16 6.64Q169.90 6.91 169.49 6.91L169.49 6.91L166.78 6.91L166.78 14.16Q166.78 15.10 167.22 15.35Q167.66 15.60 168.34 15.60L168.34 15.60Q168.82 15.60 169.30 15.46L169.30 15.46Q169.39 15.43 169.50 15.41Q169.61 15.38 169.78 15.38L169.78 15.38Q170.11 15.38 170.38 15.64Q170.64 15.89 170.64 16.25L170.64 16.25Q170.64 16.80 170.09 17.09L170.09 17.09Q169.15 17.52 168.10 17.52L168.10 17.52ZM178.27 17.52Q176.42 17.52 175.03 16.73Q173.64 15.94 172.88 14.48Q172.13 13.03 172.13 11.16L172.13 11.16Q172.13 9.29 172.88 7.84Q173.64 6.38 175.03 5.59Q176.42 4.80 178.27 4.80L178.27 4.80Q180.10 4.80 181.49 5.59Q182.88 6.38 183.65 7.84Q184.42 9.29 184.42 11.16L184.42 11.16Q184.42 13.03 183.65 14.48Q182.88 15.94 181.49 16.73Q180.10 17.52 178.27 17.52L178.27 17.52ZM178.27 15.53Q179.26 15.53 180.16 15.07Q181.06 14.62 181.64 13.63Q182.23 12.65 182.23 11.14L182.23 11.14Q182.23 9.65 181.64 8.66Q181.06 7.68 180.16 7.24Q179.26 6.79 178.27 6.79L178.27 6.79Q177.26 6.79 176.36 7.24Q175.46 7.68 174.89 8.66Q174.31 9.65 174.31 11.14L174.31 11.14Q174.31 12.65 174.89 13.63Q175.46 14.62 176.36 15.07Q177.26 15.53 178.27 15.53L178.27 15.53ZM188.54 17.40Q188.09 17.40 187.78 17.09Q187.46 16.78 187.46 16.32L187.46 16.32L187.46 6.02Q187.46 5.57 187.78 5.24Q188.09 4.92 188.54 4.92L188.54 4.92Q189 4.92 189.32 5.24Q189.65 5.57 189.65 6.02L189.65 6.02L189.65 7.06Q191.33 4.80 193.42 4.80L193.42 4.80L193.54 4.80Q193.99 4.80 194.29 5.11Q194.59 5.42 194.59 5.88L194.59 5.88Q194.59 6.34 194.28 6.62Q193.97 6.91 193.49 6.91L193.49 6.91L193.37 6.91Q192.22 6.91 191.26 7.48Q190.30 8.04 189.65 9.02L189.65 9.02L189.65 16.32Q189.65 16.78 189.32 17.09Q189 17.40 188.54 17.40L188.54 17.40ZM197.69 2.54Q197.18 2.54 196.82 2.18Q196.46 1.82 196.46 1.32L196.46 1.32L196.46 1.22Q196.46 0.72 196.82 0.36Q197.18 0 197.69 0L197.69 0L197.83 0Q198.34 0 198.70 0.36Q199.06 0.72 199.06 1.22L199.06 1.22L199.06 1.32Q199.06 1.82 198.70 2.18Q198.34 2.54 197.83 2.54L197.83 2.54L197.69 2.54ZM197.74 17.40Q197.28 17.40 196.97 17.09Q196.66 16.78 196.66 16.32L196.66 16.32L196.66 6.02Q196.66 5.57 196.97 5.24Q197.28 4.92 197.74 4.92L197.74 4.92Q198.22 4.92 198.53 5.23Q198.84 5.54 198.84 6.02L198.84 6.02L198.84 16.32Q198.84 16.78 198.52 17.09Q198.19 17.40 197.74 17.40L197.74 17.40ZM205.75 17.52Q204.70 17.52 203.80 17.09Q202.90 16.66 202.37 15.83Q201.84 15 201.84 13.92L201.84 13.92Q201.84 12.14 203.24 11.09Q204.65 10.03 207.36 10.03L207.36 10.03L210.26 10.03L210.26 9.84Q210.26 8.26 209.48 7.56Q208.70 6.86 207.05 6.86L207.05 6.86Q206.14 6.86 205.43 7.01Q204.72 7.15 203.86 7.44L203.86 7.44Q203.66 7.49 203.54 7.49L203.54 7.49Q203.18 7.49 202.92 7.22Q202.66 6.96 202.66 6.58L202.66 6.58Q202.66 5.93 203.28 5.66L203.28 5.66Q205.32 4.80 207.43 4.80L207.43 4.80Q209.09 4.80 210.23 5.47Q211.37 6.14 211.91 7.21Q212.45 8.28 212.45 9.53L212.45 9.53L212.45 16.32Q212.45 16.78 212.12 17.09Q211.80 17.40 211.34 17.40L211.34 17.40Q210.89 17.40 210.58 17.09Q210.26 16.78 210.26 16.32L210.26 16.32L210.26 15.70Q208.49 17.52 205.75 17.52L205.75 17.52ZM206.57 15.60Q207.62 15.60 208.61 15.08Q209.59 14.57 210.26 13.80L210.26 13.80L210.26 11.78L207.65 11.78Q204.02 11.78 204.02 13.68L204.02 13.68Q204.02 14.54 204.61 15.07Q205.20 15.60 206.57 15.60L206.57 15.60Z" transform="translate(0, 52)"></path></svg>